<svg xmlns="http://www.w3.org/2000/svg" xmlns:xlink="http://www.w3.org/1999/xlink" width="1080" zoomAndPan="magnify" viewBox="0 0 810 809.999993" height="1080" preserveAspectRatio="xMidYMid meet" version="1.0"><defs><clipPath id="3f54e85d30"><path d="M 45.203125 118.796875 L 774.203125 118.796875 L 774.203125 683.546875 L 45.203125 683.546875 Z M 45.203125 118.796875 " clip-rule="nonzero"/></clipPath></defs><g clip-path="url(#3f54e85d30)"><path fill="#ff751f" d="M 737.519531 178.507812 L 705.628906 178.507812 L 705.628906 148.886719 C 705.628906 132.609375 692.34375 119.207031 676.058594 119.054688 L 666.042969 118.960938 C 574.3125 118.257812 470.847656 117.402344 409.78125 171.59375 C 348.71875 117.371094 245.160156 118.257812 153.519531 118.960938 L 143.5 119.054688 C 127.25 119.207031 113.929688 132.519531 113.929688 148.886719 L 113.929688 178.507812 L 82.039062 178.507812 C 61.789062 178.507812 45.292969 195.03125 45.292969 215.316406 L 45.292969 586.691406 C 45.292969 596.632812 49.109375 605.875 56.074219 612.851562 C 63.039062 619.828125 72.417969 623.589844 82.285156 623.5 L 92.304688 623.40625 C 197.265625 622.550781 316.183594 621.601562 387.414062 676.128906 C 394.136719 681.238281 401.957031 683.839844 409.773438 683.839844 C 417.59375 683.839844 425.414062 681.269531 432.074219 676.160156 C 503.308594 621.632812 622.257812 622.582031 727.1875 623.4375 L 737.207031 623.53125 C 747.070312 623.621094 756.449219 619.859375 763.414062 612.882812 C 770.378906 605.90625 774.199219 596.664062 774.199219 586.71875 L 774.199219 215.253906 C 774.257812 194.96875 757.761719 178.503906 737.511719 178.503906 Z M 665.886719 136.769531 L 675.90625 136.863281 C 682.472656 136.953125 687.789062 142.277344 687.789062 148.855469 L 687.789062 544.832031 C 687.789062 548.136719 686.535156 551.105469 684.277344 553.371094 C 682.015625 555.636719 678.960938 556.890625 675.660156 556.828125 L 665.976562 556.738281 C 578.550781 556.03125 480.496094 555.390625 418.542969 602.238281 L 418.542969 187.75 C 474.050781 135.363281 575.863281 136.066406 665.886719 136.769531 Z M 131.710938 148.828125 C 131.710938 142.25 137.027344 136.832031 143.59375 136.832031 L 153.613281 136.742188 C 243.636719 136.039062 345.445312 135.332031 400.886719 187.75 L 400.886719 602.203125 C 346.546875 561.078125 264.4375 556.550781 185.996094 556.550781 C 175.058594 556.550781 164.183594 556.644531 153.460938 556.703125 L 143.777344 556.796875 C 140.480469 556.886719 137.457031 555.632812 135.164062 553.339844 C 132.902344 551.074219 131.652344 548.015625 131.652344 544.800781 L 131.621094 148.824219 Z M 756.511719 586.71875 C 756.511719 591.890625 754.558594 596.664062 750.953125 600.273438 C 747.441406 603.792969 742.675781 605.753906 737.574219 605.753906 L 737.421875 605.753906 L 727.402344 605.660156 C 619.574219 604.804688 497.417969 603.855469 421.320312 662.054688 C 414.355469 667.375 405.285156 667.375 398.320312 662.054688 C 322.226562 603.855469 200.011719 604.804688 92.234375 605.660156 L 82.21875 605.753906 C 77.144531 605.753906 72.289062 603.886719 68.683594 600.273438 C 65.078125 596.664062 63.125 591.890625 63.125 586.71875 L 63.1875 215.253906 C 63.1875 204.757812 71.707031 196.28125 82.125 196.28125 L 114.015625 196.28125 L 114.015625 544.859375 C 114.015625 552.9375 117.132812 560.433594 122.78125 566.09375 C 128.402344 571.664062 135.855469 574.722656 143.738281 574.722656 L 143.984375 574.722656 L 153.667969 574.632812 C 245.089844 573.925781 348.703125 573.070312 403.507812 627.964844 C 405.21875 629.679688 407.507812 630.535156 409.769531 630.535156 C 412.03125 630.535156 414.289062 629.679688 416.03125 627.964844 C 470.863281 573.039062 574.480469 573.929688 665.871094 574.632812 L 675.554688 574.722656 L 675.800781 574.722656 C 683.773438 574.722656 691.195312 571.664062 696.757812 566.09375 C 702.375 560.464844 705.523438 552.9375 705.523438 544.859375 L 705.523438 196.28125 L 737.414062 196.28125 C 747.890625 196.28125 756.351562 204.816406 756.351562 215.253906 L 756.351562 586.71875 Z M 457.945312 374.117188 C 455.988281 369.589844 458.097656 364.328125 462.648438 362.460938 C 513.328125 340.765625 578.089844 337.707031 640.398438 337.707031 C 645.316406 337.707031 649.316406 341.714844 649.316406 346.640625 C 649.316406 351.566406 645.316406 355.574219 640.398438 355.574219 C 579.945312 355.574219 517.390625 358.480469 469.609375 378.921875 C 468.449219 379.378906 467.257812 379.625 466.097656 379.625 C 462.644531 379.59375 459.351562 377.542969 457.945312 374.117188 Z M 457.945312 441.800781 C 455.988281 437.273438 458.097656 432.011719 462.648438 430.144531 C 513.328125 408.449219 578.089844 405.390625 640.398438 405.390625 C 645.316406 405.390625 649.316406 409.398438 649.316406 414.324219 C 649.316406 419.25 645.316406 423.257812 640.398438 423.257812 C 579.945312 423.257812 517.390625 426.164062 469.609375 446.605469 C 468.449219 447.0625 467.257812 447.308594 466.097656 447.308594 C 462.644531 447.1875 459.351562 445.167969 457.945312 441.800781 Z M 457.945312 306.5 C 455.988281 301.96875 458.097656 296.707031 462.648438 294.839844 C 513.328125 273.144531 578.089844 270.085938 640.398438 270.085938 C 645.316406 270.085938 649.316406 274.09375 649.316406 279.019531 C 649.316406 283.945312 645.316406 287.953125 640.398438 287.953125 C 579.945312 287.953125 517.390625 290.863281 469.609375 311.300781 C 468.449219 311.761719 467.257812 312.003906 466.097656 312.003906 C 462.644531 311.914062 459.351562 309.863281 457.945312 306.5 Z M 457.945312 238.90625 C 455.988281 234.378906 458.097656 229.117188 462.648438 227.25 C 513.328125 205.554688 578.089844 202.492188 640.398438 202.492188 C 645.316406 202.492188 649.316406 206.503906 649.316406 211.429688 C 649.316406 216.355469 645.316406 220.363281 640.398438 220.363281 C 579.945312 220.363281 517.390625 223.269531 469.609375 243.710938 C 468.449219 244.167969 467.257812 244.414062 466.097656 244.414062 C 462.644531 244.324219 459.351562 242.273438 457.945312 238.90625 Z M 649.292969 481.832031 C 649.292969 486.757812 645.292969 490.765625 640.375 490.765625 C 579.921875 490.765625 517.363281 493.671875 469.585938 514.113281 C 468.425781 514.570312 467.230469 514.816406 466.070312 514.816406 C 462.621094 514.816406 459.351562 512.765625 457.855469 509.398438 C 455.898438 504.871094 458.007812 499.609375 462.558594 497.742188 C 513.238281 476.046875 577.996094 472.988281 640.308594 472.988281 C 645.316406 472.957031 649.292969 476.964844 649.292969 481.832031 Z M 170.257812 211.429688 C 170.257812 206.5 174.257812 202.492188 179.175781 202.492188 C 241.582031 202.492188 306.25 205.554688 356.921875 227.246094 C 361.445312 229.207031 363.582031 234.378906 361.628906 238.90625 C 360.222656 242.269531 356.921875 244.324219 353.410156 244.324219 C 352.25 244.324219 351.058594 244.078125 349.898438 243.617188 C 302.121094 223.179688 239.566406 220.363281 179.109375 220.269531 C 174.222656 220.269531 170.257812 216.261719 170.257812 211.429688 Z M 170.257812 279.019531 C 170.257812 274.09375 174.257812 270.085938 179.175781 270.085938 C 241.582031 270.085938 306.25 273.144531 356.921875 294.839844 C 361.445312 296.796875 363.582031 301.96875 361.628906 306.496094 C 360.222656 309.863281 356.921875 311.914062 353.410156 311.914062 C 352.25 311.914062 351.058594 311.667969 349.898438 311.210938 C 302.121094 290.769531 239.566406 287.953125 179.109375 287.863281 C 174.222656 287.863281 170.257812 283.945312 170.257812 279.019531 Z M 170.257812 346.613281 C 170.257812 341.683594 174.257812 337.675781 179.175781 337.675781 C 241.582031 337.675781 306.25 340.738281 356.921875 362.433594 C 361.445312 364.390625 363.582031 369.5625 361.628906 374.089844 C 360.222656 377.457031 356.921875 379.503906 353.410156 379.503906 C 352.25 379.503906 351.058594 379.261719 349.898438 378.800781 C 302.121094 358.363281 239.566406 355.546875 179.109375 355.453125 C 174.222656 355.546875 170.257812 351.539062 170.257812 346.613281 Z M 170.257812 481.828125 C 170.257812 476.902344 174.257812 472.894531 179.175781 472.894531 C 241.582031 472.894531 306.25 475.953125 356.921875 497.648438 C 361.445312 499.609375 363.582031 504.777344 361.628906 509.308594 C 360.222656 512.671875 356.921875 514.722656 353.410156 514.722656 C 352.25 514.722656 351.058594 514.476562 349.898438 514.019531 C 302.121094 493.578125 239.566406 490.761719 179.109375 490.671875 C 174.222656 490.761719 170.257812 486.753906 170.257812 481.828125 Z M 170.257812 414.207031 C 170.257812 409.28125 174.257812 405.269531 179.175781 405.269531 C 241.582031 405.269531 306.25 408.332031 356.921875 430.027344 C 361.445312 431.984375 363.582031 437.15625 361.628906 441.683594 C 360.222656 445.050781 356.921875 447.101562 353.410156 447.101562 C 352.25 447.101562 351.058594 446.855469 349.898438 446.394531 C 302.121094 425.957031 239.566406 423.140625 179.109375 423.050781 C 174.222656 423.140625 170.257812 419.164062 170.257812 414.207031 Z M 170.257812 414.207031 " fill-opacity="1" fill-rule="nonzero"/></g></svg>