<svg xmlns="http://www.w3.org/2000/svg" xmlns:xlink="http://www.w3.org/1999/xlink" width="1080" zoomAndPan="magnify" viewBox="0 0 810 809.999993" height="1080" preserveAspectRatio="xMidYMid meet" version="1.0"><defs><clipPath id="0f09b48186"><path d="M 123.015625 20.15625 L 687 20.15625 L 687 789.65625 L 123.015625 789.65625 Z M 123.015625 20.15625 " clip-rule="nonzero"/></clipPath></defs><g clip-path="url(#0f09b48186)"><path fill="#ff751f" d="M 404.996094 20.476562 C 249.367188 20.476562 123.015625 146.832031 123.015625 302.460938 C 123.015625 347.960938 146.726562 411 181.359375 476.496094 C 257.726562 621 385 779.910156 385 779.910156 C 389.847656 785.984375 397.203125 789.519531 404.996094 789.519531 C 412.789062 789.519531 420.148438 785.984375 424.992188 779.910156 C 424.992188 779.910156 552.269531 621 628.632812 476.496094 C 663.265625 411 686.980469 347.960938 686.980469 302.460938 C 686.980469 146.832031 560.625 20.476562 404.996094 20.476562 Z M 404.996094 71.746094 C 532.324219 71.746094 635.710938 175.132812 635.710938 302.460938 C 635.710938 341.863281 613.277344 395.824219 583.3125 452.550781 C 527.273438 558.527344 443.089844 672.449219 404.996094 722.179688 C 366.902344 672.449219 282.71875 558.527344 226.679688 452.550781 C 196.714844 395.824219 174.285156 341.863281 174.285156 302.460938 C 174.285156 175.132812 277.667969 71.746094 404.996094 71.746094 Z M 404.996094 123.015625 C 320.121094 123.015625 251.1875 191.949219 251.1875 276.824219 C 251.1875 361.703125 320.121094 430.632812 404.996094 430.632812 C 489.875 430.632812 558.804688 361.703125 558.804688 276.824219 C 558.804688 191.949219 489.875 123.015625 404.996094 123.015625 Z M 404.996094 174.285156 C 461.597656 174.285156 507.535156 220.222656 507.535156 276.824219 C 507.535156 333.425781 461.597656 379.363281 404.996094 379.363281 C 348.394531 379.363281 302.457031 333.425781 302.457031 276.824219 C 302.457031 220.222656 348.394531 174.285156 404.996094 174.285156 Z M 404.996094 174.285156 " fill-opacity="1" fill-rule="evenodd"/></g></svg>