<svg xmlns="http://www.w3.org/2000/svg" xmlns:xlink="http://www.w3.org/1999/xlink" width="1080" zoomAndPan="magnify" viewBox="0 0 810 809.999993" height="1080" preserveAspectRatio="xMidYMid meet" version="1.0"><path fill="#ff751f" d="M 210.378906 39.058594 C 200.953125 29.632812 188.152344 24.3125 174.800781 24.3125 C 161.449219 24.3125 148.652344 29.632812 139.226562 39.058594 C 121.730469 56.550781 97.34375 80.941406 75.941406 102.34375 C 39.359375 138.925781 24.046875 191.691406 35.382812 242.164062 C 35.402344 242.230469 35.417969 242.3125 35.433594 242.382812 C 54.1875 321.113281 102.726562 448.488281 230.035156 575.796875 C 357.34375 703.105469 484.753906 751.648438 563.519531 770.28125 C 563.570312 770.296875 563.636719 770.296875 563.703125 770.316406 C 614.125 781.636719 666.859375 766.355469 703.40625 729.808594 C 724.859375 708.523438 749.265625 684.117188 766.777344 666.605469 C 776.21875 657.179688 781.519531 644.382812 781.519531 631.03125 C 781.519531 617.679688 776.203125 604.882812 766.777344 595.457031 C 734.855469 563.535156 678.398438 507.078125 646.480469 475.160156 C 637.050781 465.730469 624.253906 460.414062 610.902344 460.414062 C 597.550781 460.414062 584.753906 465.714844 575.328125 475.160156 L 510.683594 539.800781 C 507.128906 543.359375 502.179688 545.121094 497.214844 544.648438 C 471.316406 537.085938 418.246094 515.296875 354.390625 451.441406 C 292.601562 389.648438 270.058594 345.433594 262.171875 323.363281 C 261.621094 318.765625 262.996094 314.238281 265.964844 310.765625 C 266.03125 310.699219 266.097656 310.613281 266.164062 310.53125 C 282.386719 290.871094 314.1875 253.769531 335.050781 229.433594 C 352.160156 209.472656 351.019531 179.699219 332.4375 161.097656 Z M 186.660156 62.773438 L 308.703125 184.816406 C 314.90625 191.023438 315.277344 200.953125 309.574219 207.59375 C 288.625 232.050781 256.671875 269.335938 240.335938 289.128906 C 230.625 300.550781 226.582031 315.765625 229.332031 330.507812 C 229.484375 331.3125 229.699219 332.117188 229.96875 332.890625 C 238.085938 356.523438 261.585938 406.085938 330.675781 475.160156 C 401.84375 546.34375 461.238281 569.289062 489.097656 577.238281 C 489.769531 577.425781 490.457031 577.574219 491.144531 577.675781 C 506.992188 580.125 523.0625 574.859375 534.402344 563.519531 C 534.402344 563.519531 599.042969 498.875 599.042969 498.875 C 602.179688 495.738281 606.457031 493.960938 610.902344 493.960938 C 615.347656 493.960938 619.625 495.738281 622.761719 498.875 L 743.058594 619.171875 C 746.195312 622.308594 747.972656 626.585938 747.972656 631.03125 C 747.972656 635.476562 746.195312 639.753906 743.058594 642.890625 C 725.5625 660.367188 701.210938 684.738281 679.738281 706.039062 C 679.722656 706.058594 679.707031 706.074219 679.691406 706.089844 C 651.277344 734.488281 610.316406 746.378906 571.132812 737.605469 C 496.089844 719.84375 374.972656 673.300781 253.753906 552.078125 C 132.535156 430.859375 85.988281 309.742188 68.09375 234.714844 C 59.320312 195.484375 71.230469 154.492188 99.660156 126.058594 L 162.945312 62.773438 C 166.082031 59.636719 170.355469 57.859375 174.800781 57.859375 C 179.246094 57.859375 183.523438 59.636719 186.660156 62.773438 Z M 186.660156 62.773438 " fill-opacity="1" fill-rule="evenodd"/><path fill="#ff751f" d="M 409.625 111.066406 C 567.007812 111.066406 694.769531 238.824219 694.769531 396.207031 C 694.769531 405.464844 702.28125 412.980469 711.542969 412.980469 C 720.800781 412.980469 728.316406 405.464844 728.316406 396.207031 C 728.316406 220.324219 585.507812 77.519531 409.625 77.519531 C 400.367188 77.519531 392.851562 85.03125 392.851562 94.292969 C 392.851562 103.550781 400.367188 111.066406 409.625 111.066406 Z M 409.625 111.066406 " fill-opacity="1" fill-rule="evenodd"/><path fill="#ff751f" d="M 409.625 211.703125 C 511.457031 211.703125 594.128906 294.378906 594.128906 396.207031 C 594.128906 405.464844 601.644531 412.980469 610.902344 412.980469 C 620.160156 412.980469 627.675781 405.464844 627.675781 396.207031 C 627.675781 275.859375 529.972656 178.15625 409.625 178.15625 C 400.367188 178.15625 392.851562 185.671875 392.851562 194.929688 C 392.851562 204.1875 400.367188 211.703125 409.625 211.703125 Z M 409.625 211.703125 " fill-opacity="1" fill-rule="evenodd"/><path fill="#ff751f" d="M 409.625 312.34375 C 455.917969 312.34375 493.492188 349.914062 493.492188 396.207031 C 493.492188 405.464844 501.003906 412.980469 510.265625 412.980469 C 519.523438 412.980469 527.039062 405.464844 527.039062 396.207031 C 527.039062 331.414062 474.421875 278.796875 409.625 278.796875 C 400.367188 278.796875 392.851562 286.308594 392.851562 295.570312 C 392.851562 304.828125 400.367188 312.34375 409.625 312.34375 Z M 409.625 312.34375 " fill-opacity="1" fill-rule="evenodd"/></svg>