<svg xmlns="http://www.w3.org/2000/svg" xmlns:xlink="http://www.w3.org/1999/xlink" width="1080" zoomAndPan="magnify" viewBox="0 0 810 809.999993" height="1080" preserveAspectRatio="xMidYMid meet" version="1.0"><defs><clipPath id="2b0c373c8b"><path d="M 20.3125 14.070312 L 795.8125 14.070312 L 795.8125 789.570312 L 20.3125 789.570312 Z M 20.3125 14.070312 " clip-rule="nonzero"/></clipPath></defs><g clip-path="url(#2b0c373c8b)"><path fill="#ff751f" d="M 408.257812 14.070312 C 622.351562 14.070312 795.929688 187.648438 795.929688 402.015625 C 795.929688 616.113281 622.351562 789.6875 408.257812 789.6875 C 193.886719 789.6875 20.3125 616.113281 20.3125 402.015625 C 20.3125 187.648438 193.886719 14.070312 408.257812 14.070312 Z M 408.257812 32.960938 C 611.949219 32.960938 777.3125 198.050781 777.3125 402.015625 C 777.3125 605.707031 611.949219 771.070312 408.257812 771.070312 C 204.289062 771.070312 39.203125 605.707031 39.203125 402.015625 C 39.203125 198.050781 204.289062 32.960938 408.257812 32.960938 Z M 408.257812 32.960938 " fill-opacity="1" fill-rule="evenodd"/></g><path fill="#ff751f" d="M 437.824219 609.265625 C 437.550781 609.265625 437.277344 609.265625 437.003906 609.265625 C 433.992188 608.71875 432.074219 605.980469 432.347656 602.96875 C 435.085938 582.984375 460.824219 579.972656 461.917969 579.699219 C 464.929688 579.425781 467.667969 581.617188 467.941406 584.628906 C 468.214844 587.640625 466.023438 590.375 463.011719 590.652344 C 462.738281 590.652344 444.667969 592.839844 443.300781 604.613281 C 442.753906 607.351562 440.5625 609.265625 437.824219 609.265625 Z M 437.824219 609.265625 " fill-opacity="1" fill-rule="evenodd"/><path fill="#ff751f" d="M 473.691406 629.253906 C 472.046875 629.253906 470.679688 628.707031 469.582031 627.335938 C 467.667969 625.148438 467.941406 621.585938 470.128906 619.671875 C 479.164062 612.277344 471.773438 595.578125 471.5 595.578125 C 470.128906 592.839844 471.5 589.554688 474.238281 588.1875 C 476.976562 586.816406 480.261719 588.1875 481.355469 590.652344 C 481.902344 591.746094 492.855469 615.289062 477.25 628.160156 C 476.152344 628.980469 475.058594 629.253906 473.691406 629.253906 Z M 473.691406 629.253906 " fill-opacity="1" fill-rule="evenodd"/><path fill="#ff751f" d="M 456.714844 618.851562 C 455.894531 618.851562 455.074219 618.574219 454.25 618.027344 C 451.515625 616.660156 450.691406 613.375 452.0625 610.636719 L 464.929688 587.363281 C 466.570312 584.902344 469.855469 583.804688 472.320312 585.175781 C 475.058594 586.816406 476.152344 590.101562 474.511719 592.839844 L 461.644531 615.839844 C 460.546875 617.753906 458.632812 618.851562 456.714844 618.851562 Z M 456.714844 618.851562 " fill-opacity="1" fill-rule="evenodd"/><path fill="#ff751f" d="M 278.210938 475.390625 C 276.019531 475.390625 273.832031 474.292969 273.007812 472.105469 C 265.34375 452.9375 286.699219 437.335938 287.792969 436.785156 C 290.257812 435.144531 293.542969 435.691406 295.460938 438.15625 C 297.101562 440.621094 296.554688 443.90625 294.089844 445.820312 C 293.816406 445.820312 278.757812 456.773438 283.140625 467.996094 C 284.234375 470.734375 282.867188 474.019531 280.128906 475.117188 C 279.582031 475.390625 278.757812 475.390625 278.210938 475.390625 Z M 278.210938 475.390625 " fill-opacity="1" fill-rule="evenodd"/><path fill="#ff751f" d="M 320.101562 475.390625 C 319.277344 475.390625 318.730469 475.390625 317.910156 475.117188 C 315.171875 474.019531 313.800781 470.734375 314.898438 467.996094 C 319.277344 457.046875 304.21875 445.820312 304.21875 445.820312 C 301.757812 443.90625 301.207031 440.621094 302.851562 438.15625 C 304.496094 435.691406 308.054688 435.144531 310.515625 436.785156 C 311.339844 437.609375 332.695312 452.9375 325.027344 472.105469 C 324.207031 474.292969 322.289062 475.390625 320.101562 475.390625 Z M 320.101562 475.390625 " fill-opacity="1" fill-rule="evenodd"/><path fill="#ff751f" d="M 299.839844 474.292969 C 296.828125 474.292969 294.363281 472.105469 294.363281 468.820312 L 294.363281 441.988281 C 294.363281 438.976562 296.828125 436.511719 299.839844 436.511719 C 302.851562 436.511719 305.316406 438.976562 305.316406 441.988281 L 305.316406 468.820312 C 305.316406 472.105469 302.851562 474.292969 299.839844 474.292969 Z M 299.839844 474.292969 " fill-opacity="1" fill-rule="evenodd"/><path fill="#ff751f" d="M 300.386719 447.464844 C 299.839844 447.464844 299.566406 447.464844 299.292969 447.464844 C 298.746094 447.464844 298.472656 447.464844 297.921875 447.464844 C 283.140625 447.464844 248.917969 434.871094 247.273438 434.324219 C 247.273438 434.324219 247 434.324219 246.726562 434.324219 C 208.125 415.15625 179.101562 376.007812 174.996094 336.855469 C 172.804688 314.679688 177.1875 282.921875 211.136719 256.367188 C 226.742188 241.308594 269.722656 217.488281 274.378906 214.75 C 293.269531 200.515625 290.257812 181.625 290.257812 180.800781 C 289.984375 179.433594 290.53125 177.792969 291.351562 176.421875 C 292.449219 175.328125 294.089844 174.503906 295.734375 174.503906 L 302.851562 174.503906 C 304.21875 174.503906 305.863281 175.328125 306.957031 176.421875 C 308.054688 177.792969 308.328125 179.433594 308.054688 180.800781 C 308.054688 181.625 305.042969 200.515625 323.933594 214.75 C 328.585938 217.488281 371.570312 241.308594 387.175781 256.367188 C 421.125 282.921875 425.503906 314.679688 423.316406 336.855469 C 419.207031 376.007812 390.460938 415.15625 351.585938 434.324219 C 351.308594 434.324219 351.035156 434.324219 351.035156 434.324219 C 349.394531 434.871094 315.171875 447.464844 300.386719 447.464844 Z M 299.292969 436.511719 C 299.292969 436.511719 299.292969 436.511719 299.566406 436.511719 C 299.839844 436.511719 300.113281 436.511719 300.386719 436.511719 C 311.066406 436.511719 337.347656 427.75 346.929688 424.191406 C 382.519531 406.671875 408.804688 371.078125 412.363281 335.761719 C 414.28125 316.324219 410.445312 288.398438 380.332031 264.851562 C 380.058594 264.578125 380.058594 264.578125 379.785156 264.304688 C 365 249.796875 318.730469 224.605469 318.183594 224.332031 C 318.183594 224.058594 317.910156 224.058594 317.636719 223.785156 C 306.957031 215.847656 301.757812 206.539062 299.292969 198.597656 C 296.554688 206.539062 291.351562 215.847656 280.675781 223.785156 C 280.402344 224.058594 280.402344 224.058594 280.128906 224.332031 C 279.582031 224.605469 233.3125 249.796875 218.527344 264.304688 C 218.253906 264.578125 218.253906 264.578125 217.980469 264.851562 C 187.863281 288.398438 184.03125 316.324219 185.949219 335.761719 C 189.78125 371.078125 216.0625 406.671875 251.382812 424.191406 C 260.964844 427.75 287.246094 436.511719 297.921875 436.511719 C 298.199219 436.511719 298.472656 436.511719 298.746094 436.511719 C 299.019531 436.511719 299.019531 436.511719 299.292969 436.511719 Z M 299.292969 436.511719 " fill-opacity="1" fill-rule="evenodd"/><path fill="#ff751f" d="M 299.292969 447.464844 C 296.828125 447.464844 294.910156 446.09375 294.089844 443.90625 C 278.210938 405.027344 268.355469 367.519531 264.796875 332.476562 C 261.785156 304.277344 262.878906 277.71875 268.082031 253.082031 C 276.84375 211.191406 294.363281 190.386719 294.910156 189.5625 C 296.007812 188.195312 297.648438 187.648438 299.292969 187.648438 C 300.660156 187.648438 302.304688 188.195312 303.398438 189.5625 C 303.945312 190.386719 321.46875 211.191406 330.230469 253.082031 C 335.429688 277.71875 336.527344 304.277344 333.515625 332.476562 C 329.957031 367.519531 320.101562 405.027344 304.21875 443.90625 C 303.398438 446.09375 301.484375 447.464844 299.292969 447.464844 Z M 299.292969 202.429688 C 293.816406 210.917969 284.234375 228.988281 278.484375 256.367188 C 271.367188 291.136719 269.722656 348.355469 299.292969 426.929688 C 328.859375 347.808594 326.945312 290.316406 319.550781 255.542969 C 314.078125 228.441406 304.496094 210.917969 299.292969 202.429688 Z M 299.292969 202.429688 " fill-opacity="1" fill-rule="evenodd"/><path fill="#ff751f" d="M 299.292969 447.464844 C 297.648438 447.464844 296.28125 446.917969 295.1875 445.820312 C 242.894531 393.53125 217.160156 345.070312 218.800781 301.8125 C 219.621094 272.519531 233.859375 245.414062 259.046875 223.785156 C 261.511719 221.597656 264.796875 221.871094 266.710938 224.332031 C 268.902344 226.523438 268.628906 230.082031 266.164062 232 C 242.894531 251.984375 230.574219 275.53125 229.480469 302.085938 C 228.109375 341.238281 251.65625 385.589844 299.292969 434.046875 C 346.929688 385.589844 370.203125 341.238281 368.832031 302.085938 C 367.738281 275.53125 355.417969 251.984375 332.144531 232 C 329.957031 230.082031 329.683594 226.523438 331.597656 224.332031 C 333.515625 221.871094 337.074219 221.597656 339.265625 223.785156 C 364.726562 245.414062 378.6875 272.519531 379.785156 301.8125 C 381.425781 345.070312 355.417969 393.53125 303.125 445.820312 C 302.03125 446.917969 300.660156 447.464844 299.292969 447.464844 Z M 299.292969 447.464844 " fill-opacity="1" fill-rule="evenodd"/><path fill="#ff751f" d="M 524.339844 608.445312 C 522.148438 608.445312 519.957031 608.445312 517.769531 608.171875 C 517.769531 608.171875 517.496094 608.171875 517.222656 608.171875 C 513.386719 607.625 478.34375 601.875 466.570312 594.484375 C 454.25 588.460938 430.980469 561.628906 428.242188 558.617188 C 428.242188 558.617188 427.96875 558.34375 427.96875 558.34375 C 403.601562 523.300781 397.578125 475.9375 412.910156 440.34375 C 421.398438 420.359375 440.5625 394.898438 482.449219 388.328125 C 501.066406 383.398438 542.683594 383.125 555.003906 383.125 C 555.824219 383.125 556.371094 383.125 556.644531 383.125 C 579.640625 379.566406 586.214844 361.769531 586.214844 361.496094 C 586.761719 360.128906 587.855469 358.757812 589.5 358.210938 C 591.140625 357.664062 592.785156 357.664062 594.152344 358.484375 L 600.175781 362.042969 C 601.542969 362.867188 602.640625 364.234375 602.914062 365.605469 C 603.1875 367.246094 602.914062 368.890625 601.820312 370.257812 C 601.269531 370.804688 589.773438 385.589844 599.082031 406.671875 C 601.820312 411.324219 627.554688 452.390625 633.578125 472.652344 C 649.457031 510.707031 639.050781 539.453125 627.28125 556.976562 C 617.148438 572.582031 601.820312 585.449219 582.929688 594.757812 C 564.585938 603.792969 544.324219 608.445312 524.339844 608.445312 Z M 518.589844 597.496094 C 520.507812 597.496094 522.421875 597.496094 524.339844 597.496094 C 562.121094 597.496094 599.902344 578.878906 618.246094 550.953125 C 633.03125 529.050781 634.671875 503.316406 623.445312 476.484375 C 623.445312 476.484375 623.445312 476.210938 623.171875 475.9375 C 617.425781 456.5 590.046875 412.695312 589.773438 412.144531 C 589.5 411.871094 589.5 411.871094 589.226562 411.597656 C 584.023438 399.828125 583.75 389.421875 585.390625 381.210938 C 579.367188 386.957031 570.609375 392.160156 557.738281 393.804688 C 557.464844 394.078125 557.191406 394.078125 556.917969 394.078125 C 556.917969 394.078125 556.097656 394.078125 555.003906 394.078125 C 546.515625 394.078125 502.710938 394.078125 484.914062 399.003906 C 484.640625 399.003906 484.640625 399.003906 484.367188 399.003906 C 447.132812 405.027344 430.433594 426.929688 423.039062 444.453125 C 409.078125 476.757812 414.828125 519.742188 436.730469 551.773438 C 443.847656 559.714844 463.011719 580.792969 471.5 584.902344 C 471.773438 584.902344 472.046875 585.175781 472.320312 585.175781 C 480.261719 590.375 508.1875 595.578125 518.589844 597.496094 Z M 518.589844 597.496094 " fill-opacity="1" fill-rule="evenodd"/><path fill="#ff751f" d="M 469.308594 595.304688 C 468.488281 595.304688 467.394531 595.03125 466.570312 594.484375 C 464.65625 593.386719 463.558594 591.199219 463.832031 589.007812 C 468.761719 548.214844 478.34375 511.253906 492.03125 479.496094 C 502.984375 453.761719 516.671875 431.585938 532.550781 412.96875 C 560.476562 380.933594 585.390625 371.625 586.214844 371.078125 C 587.855469 370.53125 589.5 370.804688 590.867188 371.351562 C 592.238281 372.175781 593.332031 373.542969 593.605469 375.1875 C 593.878906 376.28125 598.808594 402.5625 586.214844 442.808594 C 579.09375 466.082031 567.046875 489.625 551.167969 512.347656 C 531.457031 540.824219 504.902344 568.199219 472.59375 593.9375 C 471.773438 594.757812 470.40625 595.304688 469.308594 595.304688 Z M 583.75 384.496094 C 574.714844 389.148438 558.289062 400.101562 540.492188 420.632812 C 517.769531 447.191406 488.746094 495.375 476.703125 576.6875 C 539.671875 523.027344 565.40625 472.925781 575.808594 439.523438 C 583.75 413.789062 584.296875 394.351562 583.75 384.496094 Z M 583.75 384.496094 " fill-opacity="1" fill-rule="evenodd"/><path fill="#ff751f" d="M 469.308594 595.304688 C 466.84375 595.304688 464.65625 593.660156 464.109375 591.199219 C 443.847656 521.382812 444.941406 467.449219 467.121094 431.035156 C 482.175781 406.398438 507.089844 389.96875 539.125 383.398438 C 542.136719 382.578125 545.144531 384.496094 545.695312 387.507812 C 546.242188 390.519531 544.324219 393.53125 541.3125 394.078125 C 511.746094 400.101562 490.117188 414.335938 476.425781 436.511719 C 456.441406 469.367188 455.347656 518.648438 473.140625 582.984375 C 536.933594 564.09375 578.273438 537.261719 595.796875 503.042969 C 607.566406 479.769531 608.117188 453.761719 597.710938 425.5625 C 596.617188 422.550781 598.257812 419.539062 600.996094 418.441406 C 604.007812 417.347656 607.019531 418.71875 608.117188 421.730469 C 619.339844 452.390625 618.519531 482.234375 605.378906 507.96875 C 586.214844 546.023438 540.765625 575.320312 470.679688 595.03125 C 470.128906 595.304688 469.855469 595.304688 469.308594 595.304688 Z M 469.308594 595.304688 " fill-opacity="1" fill-rule="evenodd"/><path fill="#ff751f" d="M 60.941406 38.03125 C 86.675781 55.765625 111.601562 74.628906 136.390625 93.625 C 291.480469 214.359375 436.042969 348.757812 567.71875 494.683594 C 578.597656 506.914062 590.234375 520.253906 601.074219 532.582031 C 609.253906 542.21875 625.519531 561.453125 633.671875 571.152344 C 643.59375 583.3125 655.667969 598.140625 665.53125 610.335938 C 672.84375 619.683594 689.375 640.828125 696.617188 650.140625 C 712.140625 670.820312 727.414062 691.90625 741.097656 713.855469 C 746.625 722.636719 752.050781 731.484375 757.101562 740.578125 C 763.890625 753.371094 747.386719 765.757812 737.042969 754.996094 C 702.253906 715.890625 671.195312 672.390625 639.238281 630.960938 C 596.277344 575.703125 551.328125 520.058594 505.324219 467.285156 C 397.792969 343.355469 279.789062 227.429688 148.820312 128.339844 C 117.117188 104.550781 84.828125 81.488281 50.988281 60.859375 C 50.988281 60.859375 47.816406 58.984375 47.816406 58.984375 C 41.800781 55.585938 39.726562 47.863281 43.257812 41.921875 C 46.882812 35.769531 55.078125 33.96875 60.941406 38.03125 Z M 60.941406 38.03125 " fill-opacity="1" fill-rule="nonzero"/><path fill="#ff751f" d="M 47.921875 744.5 C 191.0625 610.65625 333.238281 474.316406 470.535156 334.542969 C 542.871094 261.136719 612.957031 185.261719 684.195312 110.835938 C 704.792969 89.394531 727.800781 65.035156 748.820312 44.105469 C 754.359375 38.460938 763.496094 38.441406 769.042969 44.085938 C 773.925781 49.039062 774.410156 56.667969 770.570312 62.164062 C 758.605469 79.269531 746.234375 96.09375 733.40625 112.503906 C 695.152344 161.875 653.878906 208.894531 611.289062 254.515625 C 591.851562 275.1875 571.765625 296.066406 552.027344 316.5 C 448.851562 422.351562 341.503906 524.710938 231.453125 623.34375 C 177.273438 671.78125 122.578125 719.59375 66.472656 765.820312 C 52.351562 776.707031 34.851562 757.703125 47.921875 744.5 Z M 47.921875 744.5 " fill-opacity="1" fill-rule="nonzero"/></svg>