<svg xmlns="http://www.w3.org/2000/svg" xmlns:xlink="http://www.w3.org/1999/xlink" width="1080" zoomAndPan="magnify" viewBox="0 0 810 809.999993" height="1080" preserveAspectRatio="xMidYMid meet" version="1.0"><defs><clipPath id="5fb637f8f0"><path d="M 51.511719 45.394531 L 764.761719 45.394531 L 764.761719 758.644531 L 51.511719 758.644531 Z M 51.511719 45.394531 " clip-rule="nonzero"/></clipPath></defs><g clip-path="url(#5fb637f8f0)"><path fill="#ff751f" d="M 408.054688 45.394531 C 211.332031 45.394531 51.511719 205.214844 51.511719 401.9375 C 51.511719 598.660156 211.332031 758.480469 408.054688 758.480469 C 604.777344 758.480469 764.597656 598.660156 764.597656 401.9375 C 764.597656 205.214844 604.777344 45.394531 408.054688 45.394531 M 408.054688 77.808594 C 587.300781 77.808594 732.183594 222.734375 732.183594 401.9375 C 732.183594 581.179688 587.257812 726.066406 408.054688 726.066406 C 228.8125 726.066406 83.925781 581.140625 83.925781 401.9375 C 83.925781 222.691406 228.851562 77.808594 408.054688 77.808594 M 290.558594 312.785156 C 288.832031 312.785156 287.113281 312.871094 285.394531 313.039062 C 283.679688 313.207031 281.972656 313.460938 280.28125 313.796875 C 278.589844 314.132812 276.917969 314.550781 275.269531 315.054688 C 273.617188 315.554688 271.996094 316.132812 270.402344 316.792969 C 268.808594 317.453125 267.25 318.191406 265.730469 319.003906 C 264.207031 319.816406 262.730469 320.703125 261.296875 321.660156 C 259.859375 322.621094 258.476562 323.648438 257.144531 324.742188 C 255.808594 325.835938 254.535156 326.992188 253.3125 328.210938 C 252.09375 329.433594 250.9375 330.707031 249.84375 332.042969 C 248.75 333.375 247.722656 334.757812 246.761719 336.195312 C 245.804688 337.628906 244.917969 339.105469 244.105469 340.625 C 243.292969 342.148438 242.554688 343.707031 241.894531 345.300781 C 241.234375 346.894531 240.65625 348.515625 240.15625 350.167969 C 239.65625 351.816406 239.234375 353.488281 238.898438 355.179688 C 238.5625 356.871094 238.308594 358.578125 238.140625 360.292969 C 237.972656 362.011719 237.886719 363.730469 237.886719 365.457031 C 237.886719 367.179688 237.972656 368.902344 238.140625 370.617188 C 238.308594 372.335938 238.5625 374.039062 238.898438 375.730469 C 239.234375 377.421875 239.652344 379.09375 240.15625 380.746094 C 240.65625 382.394531 241.234375 384.019531 241.894531 385.613281 C 242.554688 387.207031 243.292969 388.761719 244.105469 390.285156 C 244.917969 391.804688 245.804688 393.285156 246.761719 394.71875 C 247.722656 396.152344 248.746094 397.535156 249.84375 398.871094 C 250.9375 400.203125 252.09375 401.480469 253.3125 402.699219 C 254.535156 403.917969 255.808594 405.078125 257.144531 406.171875 C 258.476562 407.265625 259.859375 408.292969 261.296875 409.25 C 262.730469 410.207031 264.207031 411.09375 265.730469 411.90625 C 267.25 412.722656 268.808594 413.457031 270.402344 414.117188 C 271.996094 414.777344 273.617188 415.359375 275.269531 415.859375 C 276.917969 416.359375 278.589844 416.777344 280.28125 417.113281 C 281.972656 417.453125 283.679688 417.703125 285.394531 417.875 C 287.113281 418.042969 288.832031 418.128906 290.558594 418.128906 C 292.28125 418.128906 294.003906 418.042969 295.722656 417.875 C 297.4375 417.703125 299.140625 417.453125 300.832031 417.113281 C 302.523438 416.777344 304.195312 416.359375 305.847656 415.859375 C 307.5 415.359375 309.121094 414.777344 310.714844 414.117188 C 312.308594 413.457031 313.867188 412.722656 315.386719 411.90625 C 316.90625 411.09375 318.386719 410.207031 319.820312 409.25 C 321.253906 408.292969 322.636719 407.265625 323.972656 406.171875 C 325.304688 405.078125 326.582031 403.917969 327.800781 402.699219 C 329.023438 401.480469 330.179688 400.203125 331.273438 398.871094 C 332.367188 397.535156 333.394531 396.152344 334.351562 394.71875 C 335.3125 393.285156 336.195312 391.804688 337.007812 390.285156 C 337.824219 388.761719 338.558594 387.207031 339.21875 385.613281 C 339.878906 384.019531 340.460938 382.394531 340.960938 380.746094 C 341.460938 379.09375 341.878906 377.421875 342.21875 375.730469 C 342.554688 374.039062 342.804688 372.335938 342.976562 370.617188 C 343.144531 368.902344 343.230469 367.179688 343.230469 365.457031 C 343.230469 363.730469 343.144531 362.011719 342.976562 360.292969 C 342.804688 358.578125 342.554688 356.871094 342.21875 355.179688 C 341.878906 353.488281 341.460938 351.816406 340.960938 350.167969 C 340.460938 348.515625 339.878906 346.894531 339.21875 345.300781 C 338.558594 343.707031 337.824219 342.148438 337.011719 340.625 C 336.195312 339.105469 335.3125 337.628906 334.351562 336.195312 C 333.394531 334.757812 332.367188 333.375 331.273438 332.042969 C 330.179688 330.707031 329.023438 329.433594 327.800781 328.210938 C 326.582031 326.992188 325.304688 325.835938 323.972656 324.742188 C 322.636719 323.648438 321.253906 322.621094 319.820312 321.660156 C 318.386719 320.703125 316.90625 319.816406 315.386719 319.003906 C 313.867188 318.191406 312.308594 317.453125 310.714844 316.792969 C 309.121094 316.132812 307.496094 315.554688 305.847656 315.054688 C 304.195312 314.550781 302.523438 314.132812 300.832031 313.796875 C 299.140625 313.460938 297.4375 313.207031 295.722656 313.039062 C 294.003906 312.871094 292.28125 312.785156 290.558594 312.785156 M 525.550781 312.785156 C 523.828125 312.785156 522.105469 312.871094 520.390625 313.039062 C 518.671875 313.207031 516.96875 313.460938 515.277344 313.796875 C 513.585938 314.132812 511.914062 314.550781 510.261719 315.054688 C 508.613281 315.554688 506.988281 316.132812 505.394531 316.792969 C 503.800781 317.453125 502.246094 318.191406 500.722656 319.003906 C 499.203125 319.816406 497.722656 320.703125 496.289062 321.660156 C 494.855469 322.621094 493.472656 323.648438 492.136719 324.742188 C 490.804688 325.835938 489.527344 326.992188 488.308594 328.210938 C 487.089844 329.433594 485.933594 330.707031 484.835938 332.042969 C 483.742188 333.375 482.714844 334.757812 481.757812 336.195312 C 480.800781 337.628906 479.914062 339.105469 479.101562 340.625 C 478.289062 342.148438 477.550781 343.707031 476.890625 345.300781 C 476.230469 346.894531 475.648438 348.515625 475.148438 350.167969 C 474.648438 351.816406 474.230469 353.488281 473.894531 355.179688 C 473.558594 356.871094 473.304688 358.578125 473.136719 360.292969 C 472.964844 362.011719 472.882812 363.730469 472.882812 365.457031 C 472.882812 367.179688 472.964844 368.902344 473.136719 370.617188 C 473.304688 372.335938 473.554688 374.039062 473.894531 375.730469 C 474.230469 377.421875 474.648438 379.09375 475.148438 380.746094 C 475.648438 382.394531 476.230469 384.019531 476.890625 385.613281 C 477.550781 387.207031 478.289062 388.761719 479.101562 390.285156 C 479.914062 391.804688 480.800781 393.285156 481.757812 394.71875 C 482.714844 396.152344 483.742188 397.535156 484.835938 398.871094 C 485.929688 400.203125 487.089844 401.480469 488.308594 402.699219 C 489.527344 403.917969 490.804688 405.078125 492.136719 406.171875 C 493.472656 407.265625 494.855469 408.292969 496.289062 409.25 C 497.722656 410.207031 499.203125 411.09375 500.722656 411.90625 C 502.246094 412.722656 503.800781 413.457031 505.394531 414.117188 C 506.988281 414.777344 508.613281 415.359375 510.261719 415.859375 C 511.914062 416.359375 513.585938 416.777344 515.277344 417.113281 C 516.96875 417.453125 518.671875 417.703125 520.390625 417.875 C 522.105469 418.042969 523.828125 418.128906 525.550781 418.128906 C 527.277344 418.128906 529 418.042969 530.714844 417.875 C 532.429688 417.703125 534.136719 417.453125 535.828125 417.113281 C 537.519531 416.777344 539.191406 416.359375 540.839844 415.859375 C 542.492188 415.359375 544.113281 414.777344 545.707031 414.117188 C 547.300781 413.457031 548.859375 412.722656 550.378906 411.90625 C 551.902344 411.09375 553.378906 410.207031 554.8125 409.25 C 556.25 408.292969 557.632812 407.265625 558.964844 406.171875 C 560.300781 405.078125 561.578125 403.917969 562.796875 402.699219 C 564.015625 401.480469 565.171875 400.203125 566.265625 398.871094 C 567.363281 397.535156 568.386719 396.152344 569.347656 394.71875 C 570.304688 393.285156 571.191406 391.804688 572.003906 390.285156 C 572.816406 388.761719 573.554688 387.207031 574.214844 385.613281 C 574.875 384.019531 575.453125 382.394531 575.957031 380.746094 C 576.457031 379.09375 576.875 377.421875 577.210938 375.730469 C 577.546875 374.039062 577.800781 372.335938 577.96875 370.617188 C 578.140625 368.902344 578.222656 367.179688 578.222656 365.457031 C 578.222656 363.730469 578.140625 362.011719 577.96875 360.292969 C 577.800781 358.578125 577.546875 356.871094 577.210938 355.179688 C 576.875 353.488281 576.457031 351.816406 575.957031 350.167969 C 575.453125 348.515625 574.875 346.894531 574.214844 345.300781 C 573.554688 343.707031 572.816406 342.148438 572.003906 340.625 C 571.191406 339.105469 570.304688 337.628906 569.347656 336.195312 C 568.386719 334.757812 567.363281 333.375 566.265625 332.042969 C 565.171875 330.707031 564.015625 329.433594 562.796875 328.210938 C 561.578125 326.992188 560.300781 325.835938 558.964844 324.742188 C 557.632812 323.648438 556.25 322.621094 554.8125 321.660156 C 553.378906 320.703125 551.902344 319.816406 550.382812 319.003906 C 548.859375 318.191406 547.300781 317.453125 545.707031 316.792969 C 544.113281 316.132812 542.492188 315.554688 540.839844 315.054688 C 539.191406 314.550781 537.519531 314.132812 535.828125 313.796875 C 534.136719 313.460938 532.429688 313.207031 530.714844 313.039062 C 529 312.871094 527.277344 312.785156 525.550781 312.785156 M 289.992188 523.4375 L 262.230469 540.171875 C 262.230469 540.171875 314.300781 628.828125 408.070312 628.828125 C 501.84375 628.828125 553.929688 540.171875 553.929688 540.171875 L 526.167969 523.4375 C 526.167969 523.4375 480.871094 596.449219 408.070312 596.449219 C 335.273438 596.449219 289.992188 523.4375 289.992188 523.4375 " fill-opacity="1" fill-rule="nonzero"/></g></svg>