<svg xmlns="http://www.w3.org/2000/svg" xmlns:xlink="http://www.w3.org/1999/xlink" width="1080" zoomAndPan="magnify" viewBox="0 0 810 809.999993" height="1080" preserveAspectRatio="xMidYMid meet" version="1.0"><defs><clipPath id="568533e483"><path d="M 12 35.972656 L 797.8125 35.972656 L 797.8125 740.972656 L 12 740.972656 Z M 12 35.972656 " clip-rule="nonzero"/></clipPath></defs><g clip-path="url(#568533e483)"><path fill="#ff751f" d="M 701.132812 392.125 C 707.253906 383.914062 711.59375 376.90625 713.503906 373.820312 C 713.863281 373.238281 714.171875 372.628906 714.429688 371.996094 C 714.6875 371.363281 714.890625 370.714844 715.042969 370.046875 C 715.191406 369.378906 715.285156 368.707031 715.324219 368.023438 C 715.363281 367.339844 715.34375 366.660156 715.269531 365.980469 C 715.195312 365.300781 715.066406 364.632812 714.882812 363.972656 C 714.695312 363.316406 714.457031 362.675781 714.167969 362.058594 C 713.875 361.4375 713.535156 360.847656 713.148438 360.285156 C 712.757812 359.722656 712.324219 359.199219 711.847656 358.707031 C 711.371094 358.21875 710.859375 357.769531 710.308594 357.363281 C 709.757812 356.957031 709.175781 356.601562 708.566406 356.292969 C 707.957031 355.984375 707.328125 355.726562 706.675781 355.523438 C 706.023438 355.316406 705.355469 355.167969 704.679688 355.074219 C 704.003906 354.980469 703.324219 354.941406 702.640625 354.960938 C 701.957031 354.980469 701.277344 355.054688 700.609375 355.183594 C 699.9375 355.316406 699.28125 355.5 698.640625 355.738281 C 698 355.980469 697.382812 356.269531 696.792969 356.613281 C 689.574219 360.769531 669.203125 365.582031 649.40625 369.375 C 643.941406 367.726562 638.371094 366.289062 632.722656 365.007812 C 634.820312 349.390625 639.101562 334.398438 645.5625 320.027344 C 645.824219 319.441406 646.042969 318.84375 646.214844 318.226562 C 646.386719 317.609375 646.507812 316.980469 646.582031 316.34375 C 646.65625 315.707031 646.683594 315.070312 646.65625 314.429688 C 646.632812 313.789062 646.558594 313.15625 646.433594 312.527344 C 646.308594 311.898438 646.136719 311.28125 645.917969 310.679688 C 645.699219 310.078125 645.433594 309.496094 645.125 308.9375 C 644.816406 308.375 644.464844 307.84375 644.070312 307.335938 C 643.679688 306.828125 643.25 306.355469 642.785156 305.917969 C 642.316406 305.476562 641.820312 305.078125 641.292969 304.714844 C 640.765625 304.351562 640.210938 304.03125 639.632812 303.757812 C 639.054688 303.480469 638.457031 303.25 637.84375 303.066406 C 637.230469 302.882812 636.605469 302.746094 635.972656 302.660156 C 635.335938 302.574219 634.699219 302.535156 634.058594 302.546875 C 633.417969 302.5625 632.785156 302.621094 632.152344 302.734375 C 631.519531 302.84375 630.902344 303.003906 630.296875 303.210938 C 629.691406 303.417969 629.105469 303.671875 628.535156 303.96875 C 622.757812 306.941406 617.257812 310.359375 612.03125 314.21875 C 606.804688 318.082031 601.921875 322.335938 597.378906 326.984375 C 592.839844 331.632812 588.703125 336.617188 584.964844 341.933594 C 581.230469 347.25 577.945312 352.832031 575.109375 358.675781 L 568.964844 358.675781 C 560.816406 350.507812 551.753906 343.535156 541.765625 337.757812 C 543.1875 327.511719 543.511719 317.230469 542.746094 306.917969 C 541.976562 296.601562 540.136719 286.484375 537.214844 276.5625 C 540.09375 276.5625 543.023438 276.5625 546.03125 276.5625 C 566.425781 276.5625 589.335938 274.757812 603.5625 268.039062 C 630.890625 254.960938 675.21875 224.886719 667.84375 194.132812 C 662.613281 171.929688 635.257812 164.425781 616.585938 159.40625 C 618.425781 157.539062 620.167969 155.585938 621.816406 153.546875 C 631.882812 141.203125 653.800781 109.507812 640.121094 82.152344 C 628.875 59.507812 600.425781 55.609375 599.324219 55.453125 C 578.40625 52.550781 556.621094 61.390625 534.652344 81.449219 C 529.421875 61.808594 518.542969 39.738281 498.851562 36.390625 C 473.957031 32.179688 452.773438 60.292969 439.488281 84.558594 C 424.320312 111.808594 421.183594 145.78125 423.667969 173.761719 C 420.738281 173.195312 417.792969 172.71875 414.835938 172.332031 C 411.875 171.945312 408.90625 171.652344 405.929688 171.449219 C 402.953125 171.242188 399.972656 171.128906 396.988281 171.109375 C 394.003906 171.085938 391.019531 171.15625 388.042969 171.316406 C 385.0625 171.476562 382.089844 171.730469 379.125 172.074219 C 376.160156 172.417969 373.210938 172.851562 370.273438 173.375 C 367.332031 173.898438 364.414062 174.511719 361.515625 175.214844 C 358.613281 175.917969 355.738281 176.707031 352.886719 177.585938 C 350.035156 178.464844 347.210938 179.429688 344.417969 180.484375 C 341.625 181.535156 338.867188 182.671875 336.144531 183.890625 C 333.421875 185.113281 330.738281 186.414062 328.097656 187.800781 C 325.453125 189.1875 322.855469 190.652344 320.300781 192.195312 C 317.746094 193.738281 315.242188 195.359375 312.789062 197.058594 C 310.335938 198.757812 307.933594 200.527344 305.589844 202.371094 C 303.242188 204.21875 300.957031 206.132812 298.726562 208.117188 C 296.5 210.101562 294.335938 212.152344 292.230469 214.269531 C 287.707031 218.792969 281.535156 225.644531 274.238281 234.121094 C 250.914062 261.265625 215.164062 306.664062 177.714844 358.207031 C 177.53125 358.390625 177.269531 358.441406 177.0625 358.652344 C 175.894531 359.890625 175.023438 361.3125 174.445312 362.914062 C 155.121094 389.640625 135.453125 417.832031 116.914062 445.8125 C -4.113281 628.636719 5.507812 673.382812 23.1875 691.113281 C 29.933594 697.886719 39.742188 700.972656 51.953125 700.972656 C 115.238281 700.972656 243.773438 618.726562 356.066406 536.847656 C 355.726562 541.109375 355.542969 545.425781 355.542969 549.738281 C 355.542969 655.050781 454.605469 740.644531 576.363281 740.644531 C 698.125 740.644531 797.160156 654.945312 797.160156 549.738281 C 797.265625 486.714844 760.785156 427.535156 701.132812 392.125 Z M 554.058594 379.207031 C 554.121094 379.289062 554.171875 379.375 554.214844 379.46875 C 556.664062 382.316406 558.761719 385.402344 560.515625 388.726562 C 560.832031 389.351562 561.09375 389.980469 561.355469 390.632812 C 561.617188 391.289062 562.21875 392.515625 562.558594 393.457031 C 563.15625 395.160156 563.589844 396.90625 563.863281 398.6875 C 563.976562 399.390625 564.148438 400.074219 564.378906 400.746094 C 564.613281 401.417969 564.898438 402.066406 565.242188 402.6875 C 565.585938 403.308594 565.980469 403.894531 566.425781 404.449219 C 566.867188 405 567.359375 405.511719 567.890625 405.980469 C 568.425781 406.449219 568.996094 406.867188 569.601562 407.238281 C 570.207031 407.605469 570.839844 407.921875 571.5 408.179688 C 572.160156 408.441406 572.839844 408.640625 573.535156 408.785156 C 574.230469 408.925781 574.933594 409.007812 575.640625 409.027344 C 576.351562 409.050781 577.058594 409.007812 577.757812 408.90625 C 578.460938 408.804688 579.152344 408.644531 579.824219 408.425781 C 580.5 408.203125 581.148438 407.925781 581.777344 407.59375 C 582.402344 407.257812 582.996094 406.875 583.554688 406.4375 C 584.117188 406 584.632812 405.519531 585.109375 404.992188 C 585.585938 404.46875 586.015625 403.90625 586.394531 403.304688 C 586.773438 402.703125 587.097656 402.074219 587.367188 401.417969 C 587.636719 400.761719 587.847656 400.089844 588.003906 399.394531 C 588.167969 398.925781 588.308594 398.445312 588.421875 397.957031 C 589.519531 390.40625 591.558594 383.117188 594.539062 376.09375 C 594.539062 376.09375 594.539062 375.859375 594.539062 375.726562 C 598.390625 366.445312 603.523438 357.9375 609.945312 350.203125 C 608.140625 358.613281 607.425781 367.113281 607.800781 375.703125 C 607.800781 375.703125 607.800781 375.9375 607.800781 376.066406 C 607.785156 376.171875 607.785156 376.277344 607.800781 376.382812 C 607.957031 378.800781 608.28125 381.199219 608.765625 383.574219 C 608.765625 384.097656 609 384.621094 609.132812 385.117188 C 609.605469 387.308594 610.257812 389.445312 611.09375 391.523438 C 611.621094 392.730469 612.316406 393.828125 613.1875 394.820312 C 613.507812 395.152344 613.847656 395.464844 614.207031 395.761719 C 614.785156 396.316406 615.414062 396.8125 616.089844 397.25 C 616.542969 397.515625 617.011719 397.742188 617.5 397.929688 C 618.183594 398.257812 618.890625 398.519531 619.621094 398.714844 L 621.1875 398.949219 C 621.660156 398.949219 622.078125 399.132812 622.523438 399.132812 C 623.132812 399.183594 623.742188 399.183594 624.351562 399.132812 L 625.269531 399.003906 C 632.199219 397.957031 651.417969 394.976562 670.273438 390.765625 C 659.316406 403.160156 652.152344 407.582031 648.492188 409.070312 C 647.835938 409.304688 647.207031 409.566406 646.609375 409.726562 C 645.386719 410.039062 644.253906 410.542969 643.207031 411.242188 C 643.023438 411.242188 642.761719 411.398438 642.582031 411.503906 C 642.398438 411.609375 642.292969 411.84375 642.109375 411.972656 C 641.285156 412.597656 640.550781 413.3125 639.90625 414.117188 C 639.257812 414.925781 638.722656 415.800781 638.296875 416.738281 C 637.867188 417.679688 637.5625 418.660156 637.382812 419.675781 C 637.199219 420.695312 637.144531 421.71875 637.21875 422.75 L 639.597656 451.722656 C 622.625 441.785156 600.816406 431.273438 587.296875 432.632812 C 574.742188 434.019531 553.902344 444.714844 538.316406 453.554688 L 538.316406 429.390625 C 538.445312 427.433594 537.984375 425.628906 536.929688 423.976562 C 536.621094 423.257812 536.253906 422.570312 535.832031 421.910156 C 535.328125 421.339844 534.777344 420.820312 534.183594 420.34375 C 533.8125 419.925781 533.414062 419.542969 532.980469 419.191406 C 531.859375 418.410156 530.636719 417.832031 529.320312 417.464844 C 529.320312 417.464844 528.21875 417.152344 526.46875 416.523438 C 517.609375 413.378906 509.175781 409.347656 501.164062 404.429688 C 493.152344 399.511719 485.738281 393.816406 478.925781 387.339844 L 478.429688 386.84375 L 481.855469 387.628906 L 527.984375 397.929688 C 528.847656 398.113281 529.71875 398.210938 530.601562 398.21875 L 531.097656 398.21875 C 531.386719 398.242188 531.671875 398.242188 531.960938 398.21875 C 532.722656 398.136719 533.472656 397.988281 534.210938 397.773438 L 535.152344 397.433594 C 535.847656 397.160156 536.511719 396.820312 537.136719 396.414062 L 537.949219 395.917969 C 538.792969 395.304688 539.542969 394.589844 540.199219 393.773438 C 540.921875 392.847656 541.511719 391.84375 541.976562 390.765625 C 541.976562 390.765625 541.976562 390.765625 541.976562 390.554688 C 542.382812 389.554688 542.644531 388.519531 542.761719 387.445312 C 542.785156 387.058594 542.785156 386.675781 542.761719 386.292969 C 542.839844 385.542969 542.839844 384.792969 542.761719 384.042969 C 542.761719 383.601562 542.472656 383.179688 542.367188 382.761719 C 542.210938 382.066406 542 381.386719 541.742188 380.722656 C 539.464844 375.988281 536.144531 369.136719 532.300781 361.761719 C 540.429688 366.484375 547.679688 372.300781 554.058594 379.207031 Z M 643.703125 200.28125 C 646.109375 210.269531 621.398438 232.496094 592.867188 246.042969 C 582.222656 251.089844 557.511719 253.183594 527.359375 251.667969 C 526.757812 250.4375 526.050781 249.285156 525.394531 248.082031 C 524.742188 246.882812 524.480469 246.359375 524.011719 245.46875 C 522.050781 242.042969 520.007812 238.695312 517.785156 235.425781 L 516.636719 233.859375 C 514.699219 231.085938 512.660156 228.390625 510.515625 225.75 L 508.371094 223.136719 C 507.902344 222.585938 507.484375 221.984375 506.984375 221.4375 L 509.390625 219.867188 L 512.007812 218.246094 C 513.289062 217.488281 514.621094 216.753906 516.058594 215.996094 L 518.832031 214.503906 C 520.480469 213.644531 522.285156 212.753906 524.0625 211.890625 L 526.675781 210.660156 L 535.4375 206.476562 C 542.761719 203 551.128906 199.078125 560.542969 194.238281 L 569.75 189.609375 L 571.605469 188.640625 L 577.542969 185.554688 L 580.15625 184.144531 L 584.339844 181.894531 L 586.957031 180.40625 L 589.128906 179.226562 C 596.144531 180.199219 603.054688 181.664062 609.863281 183.621094 C 619.4375 186.183594 641.742188 192.199219 643.679688 200.28125 Z M 595.898438 80.007812 C 596.082031 80.007812 612.664062 82.625 617.945312 93.503906 C 623.828125 105.351562 613.867188 124.386719 602.542969 138.273438 C 597.808594 144.105469 591.585938 149.074219 581.230469 155.246094 L 580.289062 155.742188 C 572.441406 160.214844 563.027344 165.15625 549.21875 172.191406 C 539.9375 176.898438 531.855469 180.71875 524.742188 184.117188 C 510.855469 190.683594 499.898438 195.886719 490.535156 202.632812 C 489.910156 203.050781 489.308594 203.496094 488.707031 203.964844 L 487.816406 203.261719 C 488.46875 201.039062 489.175781 198.761719 489.960938 196.382812 L 490.535156 194.734375 C 491.214844 192.722656 491.949219 190.628906 492.734375 188.511719 C 493.097656 187.515625 493.492188 186.496094 493.882812 185.503906 C 494.5625 183.726562 495.269531 181.949219 496.027344 180.117188 L 497.492188 176.691406 C 498.25 174.914062 499.0625 173.132812 499.898438 171.304688 C 500.4375 170.101562 501.015625 168.898438 501.625 167.695312 C 502.515625 165.828125 503.457031 163.972656 504.449219 162.125 C 505.050781 160.921875 505.679688 159.71875 506.332031 158.488281 C 507.457031 156.476562 508.632812 154.410156 509.835938 152.371094 C 510.464844 151.296875 511.039062 150.25 511.691406 149.207031 C 513.601562 146.09375 515.589844 142.980469 517.734375 139.84375 C 519.460938 137.386719 521.761719 134.0625 524.507812 130.324219 L 525.054688 129.539062 L 525.816406 128.546875 C 527.121094 126.792969 528.429688 124.988281 529.945312 123.082031 C 531.464844 121.171875 533.582031 118.503906 535.542969 116.152344 C 550.894531 97.976562 573.777344 76.949219 595.898438 80.007812 Z M 461.117188 96.539062 C 474.792969 71.667969 488.289062 59.507812 494.695312 60.816406 C 502.09375 62.070312 511.117188 81.734375 513.3125 101.585938 C 513.3125 102.367188 513.496094 103.179688 513.550781 103.964844 C 512.949219 104.722656 512.398438 105.453125 511.796875 106.1875 L 509.601562 109.195312 C 508.554688 110.554688 507.535156 111.808594 506.566406 113.195312 L 504.683594 115.8125 L 501.753906 119.65625 C 501.285156 120.335938 500.761719 121.015625 500.316406 121.667969 L 496.996094 126.429688 C 494.722656 129.722656 492.628906 133.019531 490.613281 136.3125 L 488.835938 139.320312 C 487.425781 141.699219 486.066406 144.054688 484.785156 146.40625 C 484.234375 147.425781 483.660156 148.449219 483.136719 149.441406 C 481.617188 152.34375 480.15625 155.21875 478.792969 158.046875 L 478.324219 159.011719 C 476.832031 162.175781 475.445312 165.289062 474.140625 168.347656 L 472.988281 170.988281 C 472.074219 173.210938 471.210938 175.382812 470.375 177.527344 L 469.355469 180.144531 C 468.4375 182.628906 467.601562 185.03125 466.738281 187.414062 C 466.738281 187.777344 466.476562 188.171875 466.347656 188.539062 C 466.359375 188.640625 466.359375 188.746094 466.347656 188.851562 C 465.589844 188.433594 464.777344 188.066406 463.992188 187.648438 L 460.332031 185.816406 C 458.449219 184.902344 456.566406 184.066406 454.65625 183.203125 C 453.402344 182.679688 452.199219 182.128906 450.945312 181.632812 L 449.269531 180.925781 C 445.582031 155.742188 446.835938 122.269531 461.167969 96.539062 Z M 362.996094 501.070312 C 176.460938 639.386719 59.796875 692.628906 40.761719 673.589844 C 38.144531 670.976562 20.808594 646.289062 108.753906 504.339844 L 150.175781 545.921875 C 150.746094 546.527344 151.367188 547.070312 152.046875 547.550781 C 152.722656 548.03125 153.441406 548.4375 154.203125 548.773438 C 154.960938 549.109375 155.746094 549.367188 156.558594 549.546875 C 157.367188 549.722656 158.1875 549.820312 159.019531 549.832031 C 159.851562 549.847656 160.671875 549.777344 161.488281 549.625 C 162.304688 549.472656 163.097656 549.238281 163.867188 548.929688 C 164.636719 548.617188 165.371094 548.230469 166.0625 547.773438 C 166.753906 547.3125 167.394531 546.789062 167.980469 546.203125 C 168.570312 545.617188 169.089844 544.976562 169.550781 544.285156 C 170.007812 543.589844 170.394531 542.859375 170.707031 542.089844 C 171.015625 541.320312 171.25 540.527344 171.402344 539.710938 C 171.554688 538.894531 171.625 538.070312 171.609375 537.242188 C 171.597656 536.410156 171.5 535.589844 171.324219 534.78125 C 171.144531 533.96875 170.886719 533.183594 170.550781 532.421875 C 170.214844 531.664062 169.808594 530.945312 169.328125 530.269531 C 168.847656 529.589844 168.304688 528.96875 167.699219 528.398438 L 122.246094 482.871094 C 127.058594 475.339844 132.054688 467.625 137.414062 459.515625 C 153.628906 435.011719 170.679688 410.378906 187.601562 386.789062 L 248.402344 447.59375 C 248.96875 448.199219 249.59375 448.742188 250.269531 449.222656 C 250.949219 449.703125 251.667969 450.109375 252.425781 450.445312 C 253.183594 450.78125 253.96875 451.039062 254.78125 451.214844 C 255.59375 451.394531 256.414062 451.492188 257.242188 451.503906 C 258.074219 451.515625 258.898438 451.449219 259.714844 451.296875 C 260.53125 451.144531 261.324219 450.910156 262.09375 450.597656 C 262.863281 450.289062 263.59375 449.902344 264.285156 449.445312 C 264.980469 448.984375 265.617188 448.460938 266.207031 447.875 C 266.792969 447.289062 267.316406 446.648438 267.773438 445.957031 C 268.234375 445.261719 268.617188 444.53125 268.929688 443.761719 C 269.242188 442.992188 269.472656 442.199219 269.625 441.382812 C 269.777344 440.566406 269.847656 439.742188 269.835938 438.914062 C 269.820312 438.082031 269.726562 437.261719 269.546875 436.449219 C 269.371094 435.640625 269.113281 434.855469 268.777344 434.09375 C 268.441406 433.335938 268.03125 432.617188 267.550781 431.9375 C 267.070312 431.261719 266.527344 430.640625 265.921875 430.070312 L 202.296875 366.472656 C 233.101562 324.289062 262.289062 287.023438 283.730469 261.160156 L 359.285156 336.710938 C 359.851562 337.316406 360.472656 337.859375 361.152344 338.339844 C 361.828125 338.820312 362.546875 339.226562 363.308594 339.5625 C 364.066406 339.898438 364.851562 340.15625 365.664062 340.335938 C 366.472656 340.511719 367.296875 340.609375 368.125 340.621094 C 368.957031 340.636719 369.777344 340.566406 370.59375 340.414062 C 371.410156 340.261719 372.203125 340.027344 372.976562 339.71875 C 373.746094 339.40625 374.476562 339.019531 375.167969 338.5625 C 375.859375 338.101562 376.5 337.582031 377.085938 336.992188 C 377.675781 336.40625 378.195312 335.765625 378.65625 335.074219 C 379.113281 334.382812 379.5 333.652344 379.8125 332.878906 C 380.125 332.109375 380.355469 331.316406 380.507812 330.5 C 380.660156 329.683594 380.730469 328.863281 380.714844 328.03125 C 380.703125 327.199219 380.605469 326.378906 380.429688 325.570312 C 380.25 324.757812 379.992188 323.972656 379.65625 323.214844 C 379.320312 322.453125 378.914062 321.734375 378.433594 321.058594 C 377.953125 320.378906 377.410156 319.757812 376.804688 319.1875 L 299.917969 242.304688 C 303.6875 238.121094 307.058594 234.460938 309.726562 231.84375 C 312.546875 229.003906 315.5 226.3125 318.585938 223.765625 C 321.667969 221.21875 324.871094 218.828125 328.195312 216.597656 C 331.515625 214.367188 334.9375 212.304688 338.460938 210.410156 C 341.984375 208.515625 345.59375 206.800781 349.289062 205.261719 C 352.984375 203.722656 356.742188 202.371094 360.570312 201.203125 C 364.398438 200.039062 368.273438 199.0625 372.195312 198.277344 C 376.117188 197.492188 380.070312 196.902344 384.050781 196.507812 C 388.035156 196.113281 392.023438 195.914062 396.027344 195.914062 C 409.210938 195.929688 422.058594 198.011719 434.574219 202.164062 C 443.085938 204.976562 451.1875 208.691406 458.878906 213.300781 C 466.566406 217.914062 473.660156 223.308594 480.15625 229.492188 L 480.417969 229.726562 C 480.8125 230.175781 481.25 230.585938 481.722656 230.953125 L 482.640625 231.871094 C 485.703125 234.9375 488.597656 238.15625 491.320312 241.53125 C 494.042969 244.902344 496.582031 248.410156 498.929688 252.054688 C 501.28125 255.699219 503.429688 259.457031 505.378906 263.328125 C 507.328125 267.203125 509.066406 271.167969 510.597656 275.222656 C 512.125 279.28125 513.433594 283.410156 514.519531 287.605469 C 515.609375 291.800781 516.472656 296.042969 517.109375 300.332031 C 517.746094 304.621094 518.15625 308.929688 518.332031 313.261719 C 518.511719 317.59375 518.460938 321.921875 518.179688 326.25 C 510.777344 323.136719 505.390625 321.332031 503.742188 320.8125 L 503.246094 320.652344 C 502.425781 320.480469 501.597656 320.382812 500.761719 320.367188 C 500.207031 320.257812 499.652344 320.1875 499.089844 320.15625 C 498.382812 320.253906 497.695312 320.421875 497.023438 320.652344 C 496.375 320.75 495.738281 320.898438 495.113281 321.097656 C 494.722656 321.28125 494.378906 321.621094 493.988281 321.832031 C 493.160156 322.257812 492.386719 322.761719 491.660156 323.347656 C 491.453125 323.554688 491.296875 323.84375 491.085938 324.054688 C 490.304688 324.847656 489.625 325.71875 489.046875 326.667969 C 488.332031 327.933594 487.871094 329.285156 487.660156 330.722656 C 487.574219 331.59375 487.574219 332.464844 487.660156 333.335938 C 487.605469 333.902344 487.605469 334.46875 487.660156 335.035156 C 487.863281 335.839844 488.144531 336.613281 488.496094 337.363281 C 488.667969 337.9375 488.875 338.496094 489.125 339.039062 C 489.816406 340.289062 490.6875 341.394531 491.738281 342.359375 C 491.949219 342.542969 492.210938 342.855469 492.445312 343.117188 C 496.65625 348.464844 500.316406 354.167969 503.429688 360.21875 L 504.214844 361.632812 C 505.3125 363.59375 506.460938 365.6875 507.746094 368.066406 L 452.042969 355.617188 C 450.902344 355.359375 449.75 355.269531 448.582031 355.335938 C 447.417969 355.40625 446.285156 355.636719 445.183594 356.027344 C 444.082031 356.417969 443.058594 356.957031 442.109375 357.636719 C 441.160156 358.316406 440.324219 359.117188 439.601562 360.035156 C 438.878906 360.953125 438.300781 361.953125 437.859375 363.035156 C 437.421875 364.117188 437.140625 365.242188 437.019531 366.402344 C 436.898438 367.566406 436.941406 368.71875 437.148438 369.871094 C 437.355469 371.019531 437.714844 372.117188 438.234375 373.164062 C 439.816406 376.335938 441.558594 379.410156 443.464844 382.398438 C 443.832031 383 444.222656 383.601562 444.613281 384.203125 C 446.550781 387.234375 448.589844 390.164062 450.734375 392.910156 C 450.003906 393.355469 449.347656 393.851562 448.640625 394.296875 C 444.703125 396.738281 440.875 399.253906 437.160156 401.855469 L 433.265625 404.679688 C 429.605469 407.292969 426.074219 410.195312 422.621094 413.097656 C 421.835938 413.753906 420.972656 414.40625 420.191406 415.113281 C 416.109375 418.597656 412.195312 422.285156 408.449219 426.175781 C 407.453125 427.167969 406.539062 428.214844 405.570312 429.234375 C 402.957031 432.136719 400.339844 435.066406 397.726562 438.097656 C 396.550781 439.484375 395.398438 440.898438 394.273438 442.308594 C 391.78125 445.484375 389.410156 448.699219 387.160156 451.960938 C 386.351562 453.136719 385.488281 454.285156 384.703125 455.464844 C 382.085938 459.414062 379.679688 463.441406 377.40625 467.546875 C 376.414062 469.351562 375.496094 471.179688 374.554688 473.011719 C 373.089844 475.863281 371.730469 478.738281 370.421875 481.667969 C 369.640625 483.472656 368.800781 485.25 368.070312 487.082031 C 366.203125 491.632812 364.539062 496.234375 363.074219 500.886719 C 363.050781 500.949219 363.023438 501.011719 362.996094 501.070312 Z M 576.46875 715.90625 C 468.359375 715.90625 380.335938 641.320312 380.335938 549.660156 C 380.363281 536.152344 382.289062 522.917969 386.113281 509.964844 C 386.375 509.074219 386.664062 508.210938 386.953125 507.347656 C 387.734375 504.734375 388.574219 502.351562 389.566406 499.894531 L 390.089844 498.484375 C 395.054688 485.699219 401.574219 473.765625 409.652344 462.679688 L 410.460938 461.582031 C 412.238281 459.175781 414.097656 456.796875 416.03125 454.46875 L 417 453.265625 C 421.488281 447.9375 426.273438 442.890625 431.355469 438.125 L 433.109375 436.53125 C 435.015625 434.777344 437.003906 433.050781 439.019531 431.300781 L 441.789062 429.023438 C 443.59375 427.585938 445.425781 426.175781 447.28125 424.761719 C 448.277344 424.03125 449.269531 423.269531 450.289062 422.566406 C 452.355469 421.074219 454.5 419.609375 456.644531 418.199219 L 459.023438 416.601562 C 461.980469 414.71875 465.011719 412.890625 468.125 411.136719 L 468.515625 410.929688 C 482.09375 422.398438 497.15625 431.378906 513.707031 437.863281 L 513.707031 475.3125 C 513.710938 476.421875 513.859375 477.515625 514.152344 478.585938 C 514.449219 479.65625 514.878906 480.671875 515.445312 481.628906 C 516.007812 482.582031 516.691406 483.449219 517.488281 484.222656 C 518.285156 484.996094 519.167969 485.652344 520.140625 486.191406 C 521.101562 486.703125 522.113281 487.085938 523.171875 487.34375 C 523.511719 487.34375 523.878906 487.34375 524.246094 487.34375 C 524.859375 487.472656 525.476562 487.550781 526.101562 487.578125 L 526.3125 487.578125 C 527.058594 487.527344 527.800781 487.421875 528.535156 487.261719 C 528.902344 487.261719 529.265625 487.261719 529.632812 487.082031 C 530.742188 486.75 531.789062 486.277344 532.769531 485.667969 C 550.371094 474.398438 579.84375 458.050781 590.171875 456.902344 C 597.128906 456.039062 623.804688 469.429688 647 485.40625 C 647.964844 486.070312 649.003906 486.585938 650.113281 486.957031 C 651.226562 487.324219 652.367188 487.53125 653.535156 487.578125 C 654.707031 487.625 655.859375 487.503906 656.996094 487.226562 C 658.132812 486.945312 659.207031 486.511719 660.21875 485.925781 C 661.234375 485.339844 662.148438 484.625 662.957031 483.78125 C 663.769531 482.9375 664.449219 481.996094 664.992188 480.960938 C 665.539062 479.921875 665.925781 478.832031 666.164062 477.683594 C 666.398438 476.539062 666.46875 475.382812 666.378906 474.214844 L 662.714844 429.390625 C 665.453125 427.886719 668.070312 426.195312 670.5625 424.316406 L 672.289062 423.011719 C 673.125 422.355469 673.960938 421.675781 674.902344 420.945312 C 676.316406 419.765625 677.675781 418.5625 679.035156 417.308594 L 679.375 416.996094 C 681.363281 415.164062 683.273438 413.253906 685.15625 411.292969 C 739.367188 441.996094 772.65625 494.273438 772.65625 549.660156 C 772.5 641.398438 684.554688 715.90625 576.46875 715.90625 Z M 576.46875 715.90625 " fill-opacity="1" fill-rule="nonzero"/></g></svg>