<svg xmlns="http://www.w3.org/2000/svg" xmlns:xlink="http://www.w3.org/1999/xlink" width="1080" zoomAndPan="magnify" viewBox="0 0 810 809.999993" height="1080" preserveAspectRatio="xMidYMid meet" version="1.0"><defs><clipPath id="314f760245"><path d="M 26.484375 26.957031 L 782.484375 26.957031 L 782.484375 781.457031 L 26.484375 781.457031 Z M 26.484375 26.957031 " clip-rule="nonzero"/></clipPath></defs><path fill="#ff751f" d="M 529.566406 606.640625 C 511.804688 606.640625 488.640625 604.410156 461.804688 596.648438 C 408.292969 581.164062 356.679688 548.832031 308.402344 500.554688 C 260.121094 452.277344 227.792969 400.664062 212.308594 347.152344 C 199.511719 302.914062 201.753906 268.636719 204.226562 252.140625 C 205.746094 242.019531 211.535156 233.148438 220.105469 227.800781 C 236.699219 217.449219 254.480469 210.496094 272.953125 207.132812 C 282.183594 205.453125 291.65625 208.414062 298.289062 215.050781 L 341.40625 258.164062 C 351.484375 268.242188 356.386719 282.148438 354.855469 296.320312 C 353.710938 306.90625 348.933594 316.882812 341.40625 324.410156 L 328.167969 337.648438 C 325.644531 340.171875 324.804688 344.015625 326.03125 347.441406 C 335.464844 373.867188 370.511719 412.984375 383.222656 425.824219 C 383.589844 426.191406 429.726562 471.574219 461.515625 482.925781 C 464.941406 484.148438 468.785156 483.3125 471.308594 480.789062 L 484.542969 467.550781 C 492.074219 460.023438 502.050781 455.246094 512.636719 454.101562 C 526.808594 452.574219 540.714844 457.472656 550.792969 467.550781 L 593.910156 510.667969 C 600.542969 517.300781 603.503906 526.773438 601.824219 536.003906 C 598.460938 554.476562 591.507812 572.257812 581.15625 588.851562 C 575.808594 597.425781 566.933594 603.210938 556.816406 604.730469 C 550.324219 605.703125 541.082031 606.640625 529.566406 606.640625 Z M 278.070312 230.925781 C 277.816406 230.925781 277.554688 230.949219 277.296875 230.996094 C 261.851562 233.804688 246.925781 239.65625 232.945312 248.378906 C 230.402344 249.964844 228.675781 252.648438 228.210938 255.742188 C 226.03125 270.277344 224.089844 300.609375 235.605469 340.410156 C 249.941406 389.945312 280.203125 438.054688 325.550781 483.40625 C 370.898438 528.753906 419.011719 559.015625 468.546875 573.347656 C 508.347656 584.863281 538.675781 582.925781 553.210938 580.742188 C 556.304688 580.277344 558.992188 578.554688 560.578125 576.011719 C 569.300781 562.027344 575.148438 547.105469 577.960938 531.65625 C 578.214844 530.257812 577.765625 528.820312 576.757812 527.8125 L 533.640625 484.699219 C 528.78125 479.839844 522.078125 477.472656 515.238281 478.214844 C 510.132812 478.765625 505.324219 481.070312 501.691406 484.699219 L 488.457031 497.9375 C 479.339844 507.050781 465.5625 510.125 453.359375 505.765625 C 416.492188 492.601562 368.109375 444.992188 366.070312 442.972656 C 363.960938 440.839844 316.351562 392.460938 303.1875 355.59375 C 298.828125 343.386719 301.902344 329.613281 311.019531 320.496094 L 324.253906 307.261719 C 327.886719 303.628906 330.1875 298.816406 330.742188 293.710938 C 331.480469 286.878906 329.113281 280.171875 324.253906 275.308594 L 281.140625 232.195312 C 280.316406 231.371094 279.207031 230.921875 278.070312 230.921875 Z M 278.070312 230.925781 " fill-opacity="1" fill-rule="nonzero"/><g clip-path="url(#314f760245)"><path fill="#ff751f" d="M 404.617188 781.589844 C 348.246094 781.589844 294.019531 769.433594 243.355469 745.421875 C 220.386719 734.539062 194.242188 731.570312 169.742188 737.070312 L 26.613281 769.199219 L 66.453125 641.660156 C 74.785156 614.988281 72.996094 586.367188 61.421875 561.070312 C 38.058594 510.023438 26.613281 455.449219 27.40625 398.851562 C 28.804688 298.804688 68.632812 205.203125 139.558594 135.292969 C 210.472656 65.394531 304.640625 26.898438 404.714844 26.898438 C 505.503906 26.898438 600.265625 66.148438 671.535156 137.417969 C 742.808594 208.691406 782.058594 303.449219 782.058594 404.242188 C 782.058594 504.398438 743.511719 598.621094 673.515625 669.550781 C 603.511719 740.492188 509.8125 780.269531 409.675781 781.558594 C 407.988281 781.578125 406.300781 781.589844 404.617188 781.589844 Z M 194.210938 710.121094 C 214.625 710.121094 235.054688 714.648438 253.742188 723.503906 C 302.550781 746.636719 354.898438 757.980469 409.363281 757.308594 C 503.078125 756.097656 590.757812 718.886719 656.25 652.515625 C 721.738281 586.152344 757.804688 497.980469 757.804688 404.246094 C 757.804688 309.929688 721.074219 221.261719 654.386719 154.570312 C 587.699219 87.886719 499.019531 51.15625 404.710938 51.152344 C 311.054688 51.152344 222.933594 87.167969 156.582031 152.566406 C 90.230469 217.972656 52.964844 305.558594 51.65625 399.195312 C 50.914062 452.164062 61.621094 503.230469 83.472656 550.976562 C 97.546875 581.726562 99.722656 616.5 89.605469 648.894531 L 62.289062 736.335938 L 164.429688 713.40625 C 174.210938 711.210938 184.210938 710.121094 194.207031 710.121094 Z M 194.210938 710.121094 " fill-opacity="1" fill-rule="nonzero"/></g></svg>